HIERARCHY
ROOT Hips
{
	OFFSET -14.64140 90.27770 -84.91600
	CHANNELS 6 Xposition Yposition Zposition Zrotation Xrotation Yrotation
	JOINT Spine
	{
		OFFSET 0.00000 13.20850 -1.60436
		CHANNELS 3 Zrotation Xrotation Yrotation
		JOINT Spine1
		{
			OFFSET 0.00000 8.61716 0.00000
			CHANNELS 3 Zrotation Xrotation Yrotation
			JOINT Spine2
			{
				OFFSET 0.00000 8.61717 0.00000
				CHANNELS 3 Zrotation Xrotation Yrotation
				JOINT Spine3
				{
					OFFSET 0.00000 8.61717 0.00000
					CHANNELS 3 Zrotation Xrotation Yrotation
					JOINT Neck
					{
						OFFSET 0.00000 11.07920 1.10792
						CHANNELS 3 Zrotation Xrotation Yrotation
						JOINT Neck1
						{
							OFFSET 0.00000 7.08032 0.00000
							CHANNELS 3 Zrotation Xrotation Yrotation
							JOINT Head
							{
								OFFSET 0.00000 7.08031 0.00000
								CHANNELS 3 Zrotation Xrotation Yrotation
								End site
								{
									OFFSET 0.00000 0.00000 0.00000
								}
							}
						}
					}
					JOINT RightShoulder
					{
						OFFSET -0.01000 7.91373 5.19711
						CHANNELS 3 Zrotation Xrotation Yrotation
						JOINT RightArm
						{
							OFFSET -18.41580 0.00000 0.00000
							CHANNELS 3 Zrotation Xrotation Yrotation
							JOINT RightForeArm
							{
								OFFSET -29.11090 0.00000 0.00000
								CHANNELS 3 Zrotation Xrotation Yrotation
								JOINT RightHand
								{
									OFFSET -24.65040 0.00000 0.00000
									CHANNELS 3 Zrotation Xrotation Yrotation
									JOINT RightHandThumb1
									{
										OFFSET -5.35114 -0.85590 3.97906
										CHANNELS 3 Zrotation Xrotation Yrotation
										JOINT RightHandThumb2
										{
											OFFSET -4.52789 0.00000 0.00000
											CHANNELS 3 Zrotation Xrotation Yrotation
											JOINT RightHandThumb3
											{
												OFFSET -2.46976 0.00000 0.00000
												CHANNELS 3 Zrotation Xrotation Yrotation
												End site
												{
													OFFSET 0.00000 0.00000 0.00000
												}
											}
										}
									}
									JOINT RightHandIndex1
									{
										OFFSET -14.26970 0.00000 2.88139
										CHANNELS 3 Zrotation Xrotation Yrotation
										JOINT RightHandIndex2
										{
											OFFSET -5.48836 0.00000 0.00000
											CHANNELS 3 Zrotation Xrotation Yrotation
											JOINT RightHandIndex3
											{
												OFFSET -3.01859 0.00000 0.00000
												CHANNELS 3 Zrotation Xrotation Yrotation
												End site
												{
													OFFSET 0.00000 0.00000 0.00000
												}
											}
										}
									}
									JOINT RightHandMiddle1
									{
										OFFSET -14.26970 0.00000 -0.09147
										CHANNELS 3 Zrotation Xrotation Yrotation
										JOINT RightHandMiddle2
										{
											OFFSET -6.17441 0.00000 0.00000
											CHANNELS 3 Zrotation Xrotation Yrotation
											JOINT RightHandMiddle3
											{
												OFFSET -3.56743 0.00000 0.00000
												CHANNELS 3 Zrotation Xrotation Yrotation
												End site
												{
													OFFSET 0.00000 0.00000 0.00000
												}
											}
										}
									}
									JOINT RightHandRing1
									{
										OFFSET -12.69180 0.00000 -3.06433
										CHANNELS 3 Zrotation Xrotation Yrotation
										JOINT RightHandRing2
										{
											OFFSET -5.62556 0.00000 0.00000
											CHANNELS 3 Zrotation Xrotation Yrotation
											JOINT RightHandRing3
											{
												OFFSET -3.56744 0.00000 0.00000
												CHANNELS 3 Zrotation Xrotation Yrotation
												End site
												{
													OFFSET 0.00000 0.00000 0.00000
												}
											}
										}
									}
									JOINT RightHandPinky1
									{
										OFFSET -11.11390 0.00000 -6.03719
										CHANNELS 3 Zrotation Xrotation Yrotation
										JOINT RightHandPinky2
										{
											OFFSET -4.52789 0.00000 0.00000
											CHANNELS 3 Zrotation Xrotation Yrotation
											JOINT RightHandPinky3
											{
												OFFSET -2.46976 0.00000 0.00000
												CHANNELS 3 Zrotation Xrotation Yrotation
												End site
												{
													OFFSET 0.00000 0.00000 0.00000
												}
											}
										}
									}
								}
							}
						}
					}
					JOINT LeftShoulder
					{
						OFFSET 0.01000 7.91373 5.19711
						CHANNELS 3 Zrotation Xrotation Yrotation
						JOINT LeftArm
						{
							OFFSET 18.41580 0.00000 0.00000
							CHANNELS 3 Zrotation Xrotation Yrotation
							JOINT LeftForeArm
							{
								OFFSET 29.11090 0.00000 0.00000
								CHANNELS 3 Zrotation Xrotation Yrotation
								JOINT LeftHand
								{
									OFFSET 24.65040 0.00000 0.00000
									CHANNELS 3 Zrotation Xrotation Yrotation
									JOINT LeftHandThumb1
									{
										OFFSET 5.35114 -0.85590 3.97906
										CHANNELS 3 Zrotation Xrotation Yrotation
										JOINT LeftHandThumb2
										{
											OFFSET 4.52789 0.00000 0.00000
											CHANNELS 3 Zrotation Xrotation Yrotation
											JOINT LeftHandThumb3
											{
												OFFSET 2.46977 0.00000 0.00000
												CHANNELS 3 Zrotation Xrotation Yrotation
												End site
												{
													OFFSET 0.00000 0.00000 0.00000
												}
											}
										}
									}
									JOINT LeftHandIndex1
									{
										OFFSET 14.26970 0.00000 2.88139
										CHANNELS 3 Zrotation Xrotation Yrotation
										JOINT LeftHandIndex2
										{
											OFFSET 5.48836 0.00000 0.00000
											CHANNELS 3 Zrotation Xrotation Yrotation
											JOINT LeftHandIndex3
											{
												OFFSET 3.01859 0.00000 0.00000
												CHANNELS 3 Zrotation Xrotation Yrotation
												End site
												{
													OFFSET 0.00000 0.00000 0.00000
												}
											}
										}
									}
									JOINT LeftHandMiddle1
									{
										OFFSET 14.26970 0.00000 -0.09147
										CHANNELS 3 Zrotation Xrotation Yrotation
										JOINT LeftHandMiddle2
										{
											OFFSET 6.17440 0.00000 0.00000
											CHANNELS 3 Zrotation Xrotation Yrotation
											JOINT LeftHandMiddle3
											{
												OFFSET 3.56744 0.00000 0.00000
												CHANNELS 3 Zrotation Xrotation Yrotation
												End site
												{
													OFFSET 0.00000 0.00000 0.00000
												}
											}
										}
									}
									JOINT LeftHandRing1
									{
										OFFSET 12.69180 0.00000 -3.06433
										CHANNELS 3 Zrotation Xrotation Yrotation
										JOINT LeftHandRing2
										{
											OFFSET 5.62556 0.00000 0.00000
											CHANNELS 3 Zrotation Xrotation Yrotation
											JOINT LeftHandRing3
											{
												OFFSET 3.56744 0.00000 0.00000
												CHANNELS 3 Zrotation Xrotation Yrotation
												End site
												{
													OFFSET 0.00000 0.00000 0.00000
												}
											}
										}
									}
									JOINT LeftHandPinky1
									{
										OFFSET 11.11390 0.00000 -6.03719
										CHANNELS 3 Zrotation Xrotation Yrotation
										JOINT LeftHandPinky2
										{
											OFFSET 4.52789 0.00000 0.00000
											CHANNELS 3 Zrotation Xrotation Yrotation
											JOINT LeftHandPinky3
											{
												OFFSET 2.46976 0.00000 0.00000
												CHANNELS 3 Zrotation Xrotation Yrotation
												End site
												{
													OFFSET 0.00000 0.00000 0.00000
												}
											}
										}
									}
								}
							}
						}
					}
					JOINT pCube4
					{
						OFFSET 0.00000 10.91090 1.10792
						CHANNELS 3 Zrotation Xrotation Yrotation
						End site
						{
							OFFSET 0.00000 0.00000 0.00000
						}
					}
				}
			}
		}
	}
	JOINT RightUpLeg
	{
		OFFSET -9.98441 0.00000 0.00000
		CHANNELS 3 Zrotation Xrotation Yrotation
		JOINT RightLeg
		{
			OFFSET 0.00000 -42.11790 0.00000
			CHANNELS 3 Zrotation Xrotation Yrotation
			JOINT RightFoot
			{
				OFFSET 0.00000 -45.00020 -0.00001
				CHANNELS 3 Zrotation Xrotation Yrotation
				JOINT RightForeFoot
				{
					OFFSET 0.00000 -3.74820 0.00000
					CHANNELS 3 Zrotation Xrotation Yrotation
					JOINT RightToeBase
					{
						OFFSET 0.00000 0.06325 14.43120
						CHANNELS 3 Zrotation Xrotation Yrotation
						End site
						{
							OFFSET 0.00000 0.00000 0.00000
						}
					}
				}
			}
		}
	}
	JOINT LeftUpLeg
	{
		OFFSET 9.98441 0.00000 0.00000
		CHANNELS 3 Zrotation Xrotation Yrotation
		JOINT LeftLeg
		{
			OFFSET 0.00000 -42.11800 0.00000
			CHANNELS 3 Zrotation Xrotation Yrotation
			JOINT LeftFoot
			{
				OFFSET 0.00000 -45.00070 0.00000
				CHANNELS 3 Zrotation Xrotation Yrotation
				JOINT LeftForeFoot
				{
					OFFSET 0.00000 -3.74824 0.00000
					CHANNELS 3 Zrotation Xrotation Yrotation
					JOINT LeftToeBase
					{
						OFFSET 0.00000 0.06325 14.43110
						CHANNELS 3 Zrotation Xrotation Yrotation
						End site
						{
							OFFSET 0.00000 0.00000 0.00000
						}
					}
				}
			}
		}
	}
}
MOTION
Frames: 4
Frame Time: 0.050000
-0.0008110633702698776 0.02318077843231965 0.0035762253920922586 -0.014808296147640019 0.024948411504696046 -0.02606538041971994 2.8349121751977373 3.742482514598237 -1.7485947868056175 -0.688124549754038 3.503174121390468 0.357827702678051 -0.7715255637421089 -1.0932352947502866 1.6724490038915127 -0.8482452386174762 -0.6320453173520799 -0.18097560700018478 0.3267658552647668 11.911178656956173 -2.029809451961004 0.13098585591320688 -0.9331169942222383 -6.131416942169793 0.9781055723852157 -17.133487132082518 -0.4826735827137513 -9.649704274206778 3.564286636901915 -15.752110190066624 76.27799469248976 -9.04143961459085 23.41792262717283 22.168557790613985 4.835710999217006 80.14106202885708 17.16750802189546 -0.4576970679019495 -5.9837284373215995 4.568014757341712 -0.12949517118606238 -1.6363896739234733 0.018267855752904776 -0.0008900376839237175 -56.18438617098699 0.009226734289369074 0.01996319885455398 -56.201285812074715 -38.7296104590348 -0.0075765373586296975 -0.03934566015660003 0.034600441961454766 -0.007985674481533197 -0.012104117961423296 -0.028174404723727047 0.048916193594266986 0.00420338605795672 -36.738820247445844 -0.030312363118273056 -0.019818633041722537 0.00047070760460714354 -0.001760752756466817 0.03614493438984816 0.02242512406276974 0.030385408838433894 0.028051001519027133 -19.762014390983694 0.023169744482842855 0.006030732659022813 -0.013877695459322303 0.00804597814017663 0.039510331348360524 -0.025402467924898583 -0.03855908573180227 -0.04757416498348435 24.068001825149114 0.012728576799389567 0.025932862121966625 28.81886418185402 -0.01968451927007663 0.04098695683610448 28.909116573217304 -0.004587852375013139 0.0008705384453187506 7.713916814548381 2.040763015099538 13.819236215547068 -75.01537645865896 7.263602067602218 -14.058003655202047 -11.15983322699403 12.666440526916105 -54.5042763515032 -21.27384046448192 2.2736970662875935 -0.7214369113565854 -0.46950326982448565 0.05498533694334665 -8.085855224676166 0.010713785638074147 0.04724949404113014 44.54775126132782 -0.018932156955855647 0.02272625610731825 44.586984725174446 12.441492719228782 0.037032422388870015 0.010974951848341656 0.011354927269558498 -0.02787684215257185 -0.03204242733846348 -0.03313908657783429 -0.044773148335107406 0.014443189164497208 11.117282373829402 0.04525220637552729 -0.038314779210598136 -0.012990122445621106 -0.02961310340838697 0.04652578346822707 0.029162662240091227 -0.03470632880042784 -0.011725511815645087 4.744370468994151 -0.022083702430026268 -0.03664753388737999 -0.030334059045024477 -0.010615687143592803 -0.01649607961520696 -0.005163544964954576 -0.02895074095450083 0.018030534335322593 -5.568149212282178 -0.010514484548639328 0.012138156929350257 -6.723875532052615 -0.04251565514555409 0.009044088424826261 -6.739861496094478 0.004144158434150774 0.04573878050586829 0.00814793884735431 -0.01798031322610618 -0.01288005075668565 8.074909445190256 3.5142567291891496 -19.170425573758248 -0.03915208640248359 10.438519768083172 0.044433460404229755 -5.644819138946646 -15.655871003782325 3.215522928765668 0.01691846244242874 -0.0314574234237651 -0.0010911813098940743 0.016309594625654136 4.738601949886139 -0.0073458481752501515 12.472005939022138 -8.210117430926182 6.9103503981841 0.000595416230524202 46.36610191759853 -0.03549686377181803 -4.354396468326334 -14.763193982174114 -3.8284830168525157 -0.007738303418261643 -0.013014526630078663 0.011661437305560483 -0.044657409244597414 -10.69636008082314 0.018742186433763776 
0.0009300142167405457 -0.0021301218376633133 -0.005767390335241687 -0.012776359359495401 0.04260296053872696 0.010799147272293717 2.599037018274589 3.6962421376932775 -1.7457750231203366 -0.6673613566145462 3.5156583595753768 0.42636517823695813 -0.8164870103722707 -1.1513337441509113 1.8282246091025618 -0.8411072224928745 -0.6291150299484187 -0.21501887039578385 0.5070029072349787 12.053897003836942 -2.223265281252839 0.16126794777912443 -0.8470990462885762 -6.959778019501926 1.0417023457779526 -16.9751519317896 -0.5859054162423283 -9.711298812980505 3.5653858416998023 -15.533317261414552 75.44227480544869 -10.54407516073112 25.775620758037963 22.19126496315435 4.946387597363929 80.93666179174998 16.6417079279014 -0.4399277057426491 -5.505482082502779 4.5080742317959865 -0.10578382044626296 -1.5548712475474211 0.024671972527563507 0.018073010760674676 -56.22571873952257 -0.04605857204562963 0.0012703859401558386 -56.27656346837587 -38.74125208972042 0.026229930854082335 0.03319596916830678 0.006100965601123946 -0.018631955219201857 0.03278991958441459 0.046445947462218105 -0.016185580441980693 0.02644027053854858 -36.73864330335786 0.03995406791791622 0.03978349436145965 0.03274108915410798 0.04447867081396341 -0.016008884879090673 0.010710166225695447 0.015983837130739965 -0.019490796926536758 -19.773284951200864 -0.03908251561968525 -0.011751680824386317 0.01091718275489915 -0.016598080102557852 -0.04955519776164894 -0.0061666838182208965 -0.004775806611289182 -0.032435207019314224 24.028079884121766 -0.03658259718947398 0.04278444835175301 28.892824871427063 -0.03777520386896964 -0.010855995245804858 28.910435660565273 -0.039137790521654364 -0.02249687874525342 7.444323054338881 1.9544006719419198 13.775762042794021 -75.086111551206 5.8819198017912 -14.20174617857393 -8.7798379319025 14.523955320815196 -52.57866439913181 -20.731933492527286 4.661344646961845 -2.122639142592363 -0.45223433584032485 0.05822777589078057 -8.140154837413617 0.023964231734116916 0.025230867282426947 44.60254290969062 0.002305071521946413 0.022824447789659304 44.573168712822564 12.447435020315424 0.03752777639227758 -0.02833849284053046 -0.0020109180231714014 -0.01512012782137694 0.02681344375705088 0.031092440625793378 -0.014697503359529185 -0.04955584918821481 11.080467950004108 -0.01261799691903863 -0.020387234565705847 0.026311046005959248 0.010272388738533455 -0.026485900297634122 -0.012054737873076028 0.010633673393668944 -0.002694641663803117 4.743519929911822 0.00824642680464757 -0.04830930768508367 -0.011879648002337359 -0.03389607154634117 -0.008344261081057713 -0.032401164450090655 -0.03129160325754317 0.016611767661443073 -5.590847023332575 -0.03837011588930137 0.009063668232340207 -6.719921388395301 0.017724661680794576 0.047636897897879615 -6.743105898501013 0.030676576949123128 -0.018653811886238915 -0.017405939718898616 -0.03182945642988628 0.027940688209430804 7.999017924834012 3.485302387854721 -19.197613828285792 -0.04304674027268056 10.354406701664086 0.029756519356143644 -5.593594481598331 -15.632278765866598 3.2110328847528278 -0.047426425655482586 -0.02061604889647737 -0.026190307494940005 -0.019714504118330596 4.668740631970178 0.00921722238888753 12.433482494979673 -8.23122247835131 6.8869834836818615 0.01190421254541297 46.4015561840576 -0.041656274169139536 -4.3243885255886045 -14.750630782417023 -3.8048801198332023 -0.029547102450893478 -0.016005835707271612 0.023686935382603372 0.009202006498615257 -10.774304902624314 -0.038348294455950234 
-0.017428662348043397 -0.03814297271465303 0.030177739082588875 0.003054374546001438 0.04901918745168514 -0.0005839351679066579 2.34532382870068 3.591310829901343 -1.6505481729340787 -0.6923709097033552 3.566834916334395 0.3950411765675099 -0.8545076150047579 -1.1255653346284828 1.9594597349630227 -0.947193311779157 -0.6843948660871267 -0.2483831713623007 0.599082076223536 12.237043540162725 -2.3648335842360066 0.08639406715471891 -0.7999177252756011 -7.45647043887148 1.03135563243367 -16.797503649343465 -0.6159503696904737 -9.868939285775497 3.5886394641095407 -15.51567333757843 74.27021981033428 -12.379904324205812 28.38080839832772 21.53333388983446 4.894648758062566 81.06283004981726 16.467264727187967 -0.4258367794493309 -5.095760231742586 4.554278300322821 -0.16240578643053283 -1.6376970446115813 -0.02780564658599041 -0.0026735192877550508 -56.237139941417134 -0.010225348567650984 0.037268962727773164 -56.23264325912822 -38.81013756511287 0.0071525331925292295 0.029305135939506434 0.04926328726388588 0.009664082127662984 0.0021491329714571255 0.04735288943696671 0.02392948038232427 0.0499580682885063 -36.69080123049092 -0.01702299660466607 0.044366032627794254 -0.019191827942034622 -0.019682516684531453 0.010581113985160076 0.036035579499475355 -0.023149554388844442 0.010708852142145793 -19.724200819500446 -0.030357722404442972 0.020720747262630745 -0.016154806491588545 -0.03709270921225742 0.02313249913970526 0.04233867378393292 -0.02660664473460048 -0.010609685548237841 24.08198983927459 -0.0010587802284439125 0.007854014450444298 28.83169486377664 0.008150081272499976 0.036723956721918895 28.860665528806624 0.040229945444408 0.03117187873496802 7.163301817782216 1.907224633508405 13.826816024384755 -75.21665486400047 4.35202182676173 -14.04936111522871 -5.274207939449959 16.034233048348966 -49.36322412528443 -20.555419780521056 6.8939951187676325 -3.481094046548889 -0.4446092374515567 0.08397277280204406 -8.12743629237146 -0.04779547921944232 -0.0422181321938051 44.57064846587274 0.029356707763514307 0.04701680344824817 44.57602186641911 12.479535245121587 -0.015759224881094443 -0.00016333871213155177 -0.030400497402894563 -0.043258461955978336 -0.022974306890800534 -0.03666206097042664 -0.02241097792506866 -0.014719265598468194 11.141622513297012 -0.003407868398315217 0.02557280251867349 -0.024589139753640583 -0.04883620873104953 0.048353207840839296 -0.01236425177810875 0.0005754516077540663 0.025190402449739874 4.770486619892386 0.029328529677992224 -0.0021225991458697 0.0024770157146192075 0.006094780514809822 0.02549810371766216 -0.01875462646962707 0.03105982559111732 0.039337463904250955 -5.647649010534508 0.025395383843528713 0.03797966452550943 -6.703671397133342 -0.030748377069653086 0.023910113105430373 -6.7501622606473735 0.03742598138424673 -0.010652387374398534 -0.021257926437730328 0.00012002432507247271 -0.0194934556494179 8.039636867106484 3.475954888211826 -19.17463300267563 -0.0018106921653086067 10.386534963102195 0.06317541316657681 -5.608903859349133 -15.678660019600358 3.2230534143615857 -0.009759930284599717 -0.022376773730915536 -0.026909016430942647 -0.013536869030907377 4.737241752986278 0.005564066137001049 12.478617759084889 -8.250693894933274 6.8979830769682335 -0.037223235280215795 46.39171891124913 -0.010698147574144995 -4.293987450058619 -14.71674564259912 -3.8380855418340833 -0.01562973135666568 -0.015229583477463612 0.03318967535552354 0.03747913301634434 -10.793339505809852 -0.012461555311045815 
0.015557632067142014 -0.022717220628760013 0.002840147404250268 -0.024496426585872262 -0.04471056828857359 0.020093964316638672 2.038750467630421 3.537130402424701 -1.6475456127270625 -0.723520413699343 3.6104171212657294 0.43831566903564356 -0.8492742062480381 -1.1990711052128886 2.1155721954605875 -0.9359812154864339 -0.7618659584976797 -0.18282980256094178 0.5533220117875122 12.233895956596228 -2.3806304726355294 0.14237744586525325 -0.7599901162280102 -7.464920918871558 1.0069212432795254 -16.620367371112657 -0.5754859561372107 -9.765061387873448 3.557083878037709 -15.43166302347428 73.29103272012473 -13.42458749012123 29.563580569079576 20.465963555752797 4.858172330029521 81.84201949691503 16.56332652404784 -0.39111682220932975 -4.898361780335432 4.552655720717132 -0.12391142799985348 -1.5641403667236329 -0.023200443893214448 -0.04245440497178474 -56.234423474586144 0.021553665174085888 0.0026817747068225766 -56.21761954194017 -38.796427916481456 0.007521922542614226 0.005170350655447853 -0.03175761875074707 -0.0459281733762746 0.025371772872925732 0.0008352170666255278 -0.010938759738805624 -0.031559943215964587 -36.72788575312406 0.04731622934534837 -0.0477988143467607 -0.029053336760114266 -0.028397456288807996 0.0063328945330568985 -2.3120612743243296e-05 0.007563240045623388 0.04159165769128898 -19.728312094757122 0.013184265287037176 -0.011569180575398305 0.005968041135492047 0.020402410207288307 -0.022355146851345285 -0.03637483406006832 -0.017077620998623262 0.012443399407030611 24.025777609917775 -0.008318568424570058 -0.016858436528521186 28.846331074067873 -0.001562882207054586 0.0247163777383746 28.81818064336473 -0.04290672747449465 0.04149684906297495 6.727631316937562 1.836156506216834 13.868821837310701 -75.461110747202 3.503689732252798 -13.432478213058243 -1.8064600634821009 17.151829003476475 -46.43918829146348 -20.531978588828224 8.827203966133705 -4.5997107302668825 -0.446541426523139 0.06984316788634123 -8.172861093612388 -0.005889656537528176 0.03454692440332183 44.54594877349448 0.03600680994059598 0.047169146824984944 44.55248499054829 12.421980619026554 -0.04045261834247564 0.043473448976580356 0.007455644020878205 0.026641974110387455 0.016989424551242548 0.04998378987572576 0.02239318912533798 -0.004195061421947858 11.128163653795394 0.03490400474744355 -0.013335146869021902 -0.008921865632200309 0.009966460412504848 -0.028317465071901204 -0.029692534260712052 0.019230536479357515 0.044081026580106764 4.7874172867378215 -0.012924583354633205 -0.0037413406674367744 0.041449593989501564 0.04095464186666639 0.026942206158968345 0.02338878109385589 -0.00031132096176531785 -0.04844279144943448 -5.577870052597946 0.029951295984444775 -0.02361123182765942 -6.7164283107939315 -0.007824890372148043 -0.021286634073962207 -6.744871920177947 -0.02772633810898085 0.026337904051229898 0.007658425000468846 0.0010372249946813293 -0.045560297029460343 8.05981001562678 3.5044475877094268 -19.17398438519562 0.012502465388420878 10.41793726207411 0.004019746134530442 -5.627740336570957 -15.664795101544897 3.213384722422488 0.0318650107351337 -0.027888453215730646 0.0016570056565850975 0.04452752981844527 4.72416376275144 -0.026970881306391154 12.48116524097993 -8.22373662662701 6.9090847829341575 0.04660968559705324 46.331881937693474 0.023103731372817127 -4.357098117715705 -14.753828774082221 -3.7985183797085162 -0.04255455505196166 -0.019444014323329047 0.014460991328660288 0.010690120982625725 -10.708843471253457 0.031055428306224805 
